<?xml version="1.0" standalone="no"?>
<!DOCTYPE svg PUBLIC "-//W3C//DTD SVG 20010904//EN"
 "http://www.w3.org/TR/2001/REC-SVG-20010904/DTD/svg10.dtd">
<svg version="1.0" xmlns="http://www.w3.org/2000/svg"
 width="300.000000pt" height="300.000000pt" viewBox="0 0 300.000000 300.000000"
 preserveAspectRatio="xMidYMid meet">
<metadata>
Created by potrace 1.14, written by Peter Selinger 2001-2017
</metadata>
<g transform="translate(0.000000,300.000000) scale(0.100000,-0.100000)"
fill="#000000" stroke="none">
<path d="M2025 2829 c-137 -14 -257 -73 -362 -177 l-30 -30 -61 13 c-99 20
-259 13 -407 -20 -42 -9 -80 -23 -143 -51 l-73 -33 -52 23 c-29 13 -86 40
-127 59 -108 51 -172 74 -197 69 -28 -4 -73 -57 -73 -85 0 -12 5 -40 10 -62 5
-22 11 -58 14 -80 4 -22 17 -94 30 -160 l24 -120 -29 -68 c-52 -123 -65 -194
-62 -342 3 -200 83 -383 233 -535 91 -92 98 -98 205 -164 l70 -43 0 -145 1
-145 -55 25 c-31 14 -72 26 -91 26 -70 0 -133 -71 -123 -138 9 -62 40 -90 167
-152 l121 -59 28 -90 c40 -128 57 -163 89 -186 75 -54 185 -5 196 86 l4 43 75
-34 c82 -37 131 -42 173 -18 88 53 78 185 -18 229 -20 10 -39 19 -40 21 -2 1
5 15 16 31 11 15 23 45 26 65 11 61 33 36 67 -75 44 -147 48 -156 85 -184 79
-60 188 -13 201 88 3 21 7 39 9 39 2 0 31 -13 65 -30 82 -39 117 -45 162 -26
52 21 79 69 74 129 -5 55 -28 86 -87 112 l-38 17 24 35 c45 67 22 153 -50 187
-37 17 -47 17 -155 -4 -86 -16 -82 -20 -80 74 l1 83 37 18 c143 68 297 213
380 358 52 92 97 244 100 344 l1 22 69 -29 c38 -17 78 -27 88 -24 78 25 89 54
67 179 l-17 92 27 66 c15 37 31 88 36 114 12 63 4 206 -14 266 -80 255 -331
423 -591 396z m-683 -1888 l36 -1 -28 -28 c-42 -42 -49 -95 -20 -149 12 -24
28 -43 34 -44 14 -1 -40 -18 -79 -24 l-30 -6 -1 131 0 130 26 -4 c14 -2 42 -5
62 -5z m241 -4 c11 -28 -8 -34 -47 -16 -36 16 -38 18 -15 22 45 8 57 7 62 -6z"/>
</g>
</svg>
